<svg width="100.000000" height="100.000000" viewBox="0 0 100 100" fill="none" xmlns="http://www.w3.org/2000/svg" xmlns:xlink="http://www.w3.org/1999/xlink">
	<desc>
			Created with Pixso.
	</desc>
	<g id="Github">
		<g id="Frame 1">
			<rect width="100.000000" height="100.000000" fill="#FFFFFF"/>
			<g clip-path="url(#clip10_1)">
				<g id="Github">
					<g id="Fill-4">
						<path d="M53.0002 7C39.747 7 29 18.2465 29 32.1203C29 43.2191 35.8768 52.6352 45.4128 55.9568C46.6122 56.1893 47.0526 55.4119 47.0526 54.7484C47.0526 54.1494 47.0304 52.1705 47.02 50.0715C40.3431 51.5911 38.9342 47.1077 38.9342 47.1077C37.8425 44.2041 36.2694 43.4321 36.2694 43.4321C34.0919 41.8729 36.4336 41.905 36.4336 41.905C38.8436 42.0822 40.1126 44.4937 40.1126 44.4937C42.2532 48.334 45.7272 47.2237 47.0967 46.5818C47.3121 44.9583 47.9341 43.8501 48.6205 43.2228C43.2897 42.5876 37.6859 40.4337 37.6859 30.8083C37.6859 28.0657 38.6234 25.8248 40.1587 24.0656C39.9095 23.4329 39.088 20.878 40.3912 17.4178C40.3912 17.4178 42.4066 16.7427 46.993 19.9927C48.9074 19.4362 50.9606 19.157 53.0002 19.1475C55.0398 19.157 57.0945 19.4362 59.0126 19.9927C63.5934 16.7427 65.606 17.4178 65.606 17.4178C66.9124 20.878 66.0905 23.4329 65.8413 24.0656C67.3801 25.8248 68.3113 28.0657 68.3113 30.8083C68.3113 40.4565 62.6968 42.5809 57.3525 43.2028C58.2133 43.9824 58.9804 45.5111 58.9804 47.8547C58.9804 51.2159 58.9525 53.921 58.9525 54.7484C58.9525 55.4169 59.3846 56.2002 60.6011 55.9535C70.132 52.6282 77 43.2153 77 32.1203C77 18.2465 66.2546 7 53.0002 7L53.0002 7Z" fill-rule="evenodd" fill="#FFFFFF"/>
					</g>
					<g id="Fill-5">
						<path d="M38.1609 42.8949C38.1081 43.0185 37.9209 43.0555 37.7503 42.9707C37.5765 42.8895 37.479 42.7211 37.5353 42.5971C37.5869 42.4698 37.7745 42.4344 37.9478 42.5197C38.122 42.6008 38.2212 42.7709 38.1609 42.8949L38.1609 42.8949Z" fill-rule="evenodd" fill="#161514"/>
					</g>
					<g id="Fill-6">
						<path d="M39.1312 44.0184C39.0169 44.1284 38.7936 44.0773 38.6421 43.9035C38.4854 43.7301 38.456 43.4982 38.5718 43.3866C38.6896 43.2766 38.9062 43.3281 39.0633 43.5015C39.22 43.6769 39.2506 43.9072 39.1312 44.0184L39.1312 44.0184Z" fill-rule="evenodd" fill="#161514"/>
					</g>
					<g id="Fill-7">
						<path d="M40.0757 45.4509C39.9289 45.5568 39.6889 45.4575 39.5406 45.2363C39.3938 45.0151 39.3938 44.7499 39.5437 44.6436C39.6925 44.5374 39.9289 44.6329 40.0793 44.8524C40.2256 45.0773 40.2256 45.3426 40.0757 45.4509L40.0757 45.4509Z" fill-rule="evenodd" fill="#161514"/>
					</g>
					<g id="Fill-8">
						<path d="M41.3697 46.835C41.2384 46.9854 40.9587 46.945 40.7541 46.7399C40.5446 46.5393 40.4863 46.2547 40.618 46.1043C40.7509 45.9536 41.0321 45.996 41.2384 46.1995C41.4463 46.3997 41.5098 46.6863 41.3697 46.835L41.3697 46.835Z" fill-rule="evenodd" fill="#161514"/>
					</g>
					<g id="Fill-9">
						<path d="M43.1548 47.6386C43.0969 47.8334 42.8275 47.9219 42.5562 47.8392C42.2853 47.7539 42.1079 47.5258 42.1627 47.3289C42.219 47.1328 42.4896 47.0405 42.7629 47.1291C43.0334 47.2139 43.2112 47.4405 43.1548 47.6386L43.1548 47.6386Z" fill-rule="evenodd" fill="#161514"/>
					</g>
					<g id="Fill-10">
						<path d="M45.1153 47.7876C45.1221 47.9927 44.892 48.1628 44.6072 48.1665C44.3207 48.1731 44.0891 48.0071 44.0859 47.8053C44.0859 47.5981 44.3108 47.4296 44.5973 47.4247C44.8821 47.4189 45.1153 47.5837 45.1153 47.7876L45.1153 47.7876Z" fill-rule="evenodd" fill="#161514"/>
					</g>
					<g id="Fill-11">
						<path d="M46.9397 47.4649C46.9738 47.6651 46.7759 47.8706 46.493 47.9254C46.2149 47.9781 45.9575 47.8546 45.9222 47.6561C45.8877 47.4509 46.0892 47.2454 46.3669 47.1923C46.6501 47.1412 46.9036 47.2615 46.9397 47.4649L46.9397 47.4649Z" fill-rule="evenodd" fill="#161514"/>
					</g>
				</g>
			</g>
		</g>
	</g>
	<defs>
		<clipPath id="clip10_1">
			<rect width="100.000000" height="100.000000" fill="white"/>
		</clipPath>
	</defs>
</svg>
